<?xml version="1.0" encoding="UTF-8"?>
<svg width="647px" height="354px" viewBox="0 0 647 354" version="1.1" xmlns="http://www.w3.org/2000/svg" xmlns:xlink="http://www.w3.org/1999/xlink">
    <!-- Generator: Sketch 52.3 (67297) - http://www.bohemiancoding.com/sketch -->
    <title>form-illustration</title>
    <desc>Created with Sketch.</desc>
    <defs>
        <linearGradient x1="50%" y1="0%" x2="88.8404911%" y2="100%" id="linearGradient-1">
            <stop stop-color="#070707" stop-opacity="0.102921196" offset="0%"></stop>
            <stop stop-color="#1C2A30" stop-opacity="0.204342165" offset="100%"></stop>
        </linearGradient>
        <path d="M8.65656034,0.557537337 L232.568829,0.557537337 C236.733199,0.557537337 240.109088,3.93342616 240.109088,8.09779606 L240.109088,181.737528 L1.11630162,181.737528 L1.11630162,8.09779606 C1.11630162,3.93342616 4.49219044,0.557537337 8.65656034,0.557537337 Z" id="path-2"></path>
        <filter x="-20.1%" y="-23.2%" width="140.2%" height="153.0%" filterUnits="objectBoundingBox" id="filter-3">
            <feOffset dx="0" dy="6" in="SourceAlpha" result="shadowOffsetOuter1"></feOffset>
            <feGaussianBlur stdDeviation="15" in="shadowOffsetOuter1" result="shadowBlurOuter1"></feGaussianBlur>
            <feColorMatrix values="0 0 0 0 0   0 0 0 0 0   0 0 0 0 0  0 0 0 0.0683876812 0" type="matrix" in="shadowBlurOuter1"></feColorMatrix>
        </filter>
        <path d="M61.9877182,24.3924123 L61.9877182,161.537528 L0.916301616,161.537528 L0.916301616,24.3924123 L0.916301616,0.0360000074 L239.909088,0.0360000074 L239.909088,24.3924123 L61.9877182,24.3924123 Z" id="path-4"></path>
        <path d="M8.61308208,0.557537337 L232.525351,0.557537337 C236.689721,0.557537337 240.065609,3.93342616 240.065609,8.09779606 L240.065609,20.5235918 L1.07282336,20.5235918 L1.07282336,8.09779606 C1.07282336,3.93342616 4.44871218,0.557537337 8.61308208,0.557537337 Z" id="path-6"></path>
        <filter x="-10.0%" y="-90.2%" width="120.1%" height="340.4%" filterUnits="objectBoundingBox" id="filter-7">
            <feOffset dx="0" dy="6" in="SourceAlpha" result="shadowOffsetOuter1"></feOffset>
            <feGaussianBlur stdDeviation="7" in="shadowOffsetOuter1" result="shadowBlurOuter1"></feGaussianBlur>
            <feColorMatrix values="0 0 0 0 0   0 0 0 0 0   0 0 0 0 0  0 0 0 0.0683876812 0" type="matrix" in="shadowBlurOuter1"></feColorMatrix>
        </filter>
        <linearGradient x1="98.351698%" y1="93.4354891%" x2="0%" y2="93.4354891%" id="linearGradient-8">
            <stop stop-color="#FFFFFF" stop-opacity="0.308933424" offset="0%"></stop>
            <stop stop-color="#F8F8F8" stop-opacity="0" offset="100%"></stop>
        </linearGradient>
        <polygon id="path-9" points="13.7708575 92.0802536 25.1572089 111.801993 2.38450612 111.801993"></polygon>
        <filter x="-111.2%" y="-110.3%" width="322.4%" height="310.8%" filterUnits="objectBoundingBox" id="filter-10">
            <feOffset dx="0" dy="2" in="SourceAlpha" result="shadowOffsetOuter1"></feOffset>
            <feGaussianBlur stdDeviation="10" in="shadowOffsetOuter1" result="shadowBlurOuter1"></feGaussianBlur>
            <feColorMatrix values="0 0 0 0 0   0 0 0 0 0   0 0 0 0 0  0 0 0 0.0683876812 0" type="matrix" in="shadowBlurOuter1"></feColorMatrix>
        </filter>
        <polygon id="path-11" points="13.7708575 78.3063406 25.1572089 98.0280797 2.38450612 98.0280797"></polygon>
        <filter x="-111.2%" y="-110.3%" width="322.4%" height="310.8%" filterUnits="objectBoundingBox" id="filter-12">
            <feOffset dx="0" dy="2" in="SourceAlpha" result="shadowOffsetOuter1"></feOffset>
            <feGaussianBlur stdDeviation="10" in="shadowOffsetOuter1" result="shadowBlurOuter1"></feGaussianBlur>
            <feColorMatrix values="0 0 0 0 0   0 0 0 0 0   0 0 0 0 0  0 0 0 0.0683876812 0" type="matrix" in="shadowBlurOuter1"></feColorMatrix>
        </filter>
        <polygon id="path-13" points="13.7708575 52.4280797 25.1572089 72.1498188 2.38450612 72.1498188"></polygon>
        <filter x="-111.2%" y="-110.3%" width="322.4%" height="310.8%" filterUnits="objectBoundingBox" id="filter-14">
            <feOffset dx="0" dy="2" in="SourceAlpha" result="shadowOffsetOuter1"></feOffset>
            <feGaussianBlur stdDeviation="10" in="shadowOffsetOuter1" result="shadowBlurOuter1"></feGaussianBlur>
            <feColorMatrix values="0 0 0 0 0   0 0 0 0 0   0 0 0 0 0  0 0 0 0.0683876812 0" type="matrix" in="shadowBlurOuter1"></feColorMatrix>
        </filter>
        <polygon id="path-15" points="13.7708575 26.5498188 25.1572089 46.271558 2.38450612 46.271558"></polygon>
        <filter x="-111.2%" y="-110.3%" width="322.4%" height="310.8%" filterUnits="objectBoundingBox" id="filter-16">
            <feOffset dx="0" dy="2" in="SourceAlpha" result="shadowOffsetOuter1"></feOffset>
            <feGaussianBlur stdDeviation="10" in="shadowOffsetOuter1" result="shadowBlurOuter1"></feGaussianBlur>
            <feColorMatrix values="0 0 0 0 0   0 0 0 0 0   0 0 0 0 0  0 0 0 0.0683876812 0" type="matrix" in="shadowBlurOuter1"></feColorMatrix>
        </filter>
        <polygon id="path-17" points="13.7708575 0.671557977 25.1572089 20.3932971 2.38450612 20.3932971"></polygon>
        <filter x="-111.2%" y="-110.3%" width="322.4%" height="310.8%" filterUnits="objectBoundingBox" id="filter-18">
            <feOffset dx="0" dy="2" in="SourceAlpha" result="shadowOffsetOuter1"></feOffset>
            <feGaussianBlur stdDeviation="10" in="shadowOffsetOuter1" result="shadowBlurOuter1"></feGaussianBlur>
            <feColorMatrix values="0 0 0 0 0   0 0 0 0 0   0 0 0 0 0  0 0 0 0.0683876812 0" type="matrix" in="shadowBlurOuter1"></feColorMatrix>
        </filter>
        <linearGradient x1="50%" y1="0%" x2="50%" y2="100%" id="linearGradient-19">
            <stop stop-color="#FF8E7A" offset="0%"></stop>
            <stop stop-color="#FF8E7A" stop-opacity="0.0335427989" offset="100%"></stop>
        </linearGradient>
        <path d="M5.52828593,79.1165395 C2.06287654,70.4677188 0.330171845,63.7474176 0.330171845,58.9556359 C0.330171845,51.7679634 2.92922889,47.537562 2.92922889,42.2071226 C2.92922889,36.8766831 2.66501473,30.9302934 4.53804249,29.409499 C6.41107024,27.8887045 9.76484315,35.9196634 10.6729352,35.9196634 C11.5810273,35.9196634 12.2672165,7.57708929 12.2672165,5.51321712 C12.2672165,3.44934495 13.2879584,0.713093764 15.3831064,0.713093764 C17.4782544,0.713093764 18.5063804,3.8829583 18.5063804,5.84263587 C18.5063804,7.14908758 19.2239885,12.7949337 20.6592047,22.7801741 C23.7621754,22.4800847 25.943252,22.7675856 27.2024345,23.6426769 C28.4616169,24.5177682 29.4602199,26.4400422 30.1982435,29.409499 C33.4139308,29.18089 35.7004489,29.5275871 37.0577978,30.4495901 C38.4151467,31.3715932 39.0841457,33.1949509 39.0647949,35.9196634 C43.4062367,37.1834224 45.7647961,38.9329502 46.140473,41.1682469 C46.7039884,44.5211919 47.4358531,65.5584294 47.4358531,69.0644186 C47.4358531,71.4017447 46.8162213,74.3737176 45.5769577,77.9803372 L5.52828593,79.1165395 Z" id="path-20"></path>
        <linearGradient x1="50%" y1="0%" x2="88.8404911%" y2="100%" id="linearGradient-22">
            <stop stop-color="#1C2A30" stop-opacity="0.126528533" offset="0%"></stop>
            <stop stop-color="#1C2A30" stop-opacity="0.361611187" offset="100%"></stop>
        </linearGradient>
        <path d="M261.406132,60.9762584 L284.590236,60.9762584 C285.973349,60.9762584 287.094584,62.0974931 287.094584,63.4806062 L287.094584,64.9352351 C287.094584,66.3183482 285.973349,67.439583 284.590236,67.439583 L261.406132,67.439583 C260.023019,67.439583 258.901784,66.3183482 258.901784,64.9352351 L258.901784,63.4806062 C258.901784,62.0974931 260.023019,60.9762584 261.406132,60.9762584 Z" id="path-23"></path>
        <filter x="-78.0%" y="-309.4%" width="256.1%" height="780.8%" filterUnits="objectBoundingBox" id="filter-24">
            <feOffset dx="0" dy="2" in="SourceAlpha" result="shadowOffsetOuter1"></feOffset>
            <feGaussianBlur stdDeviation="7" in="shadowOffsetOuter1" result="shadowBlurOuter1"></feGaussianBlur>
            <feColorMatrix values="0 0 0 0 0   0 0 0 0 0   0 0 0 0 0  0 0 0 0.0683876812 0" type="matrix" in="shadowBlurOuter1"></feColorMatrix>
        </filter>
        <linearGradient x1="50%" y1="0%" x2="88.8404911%" y2="100%" id="linearGradient-25">
            <stop stop-color="#1C2A30" stop-opacity="0.102921196" offset="0%"></stop>
            <stop stop-color="#0B1113" stop-opacity="0.204342165" offset="100%"></stop>
        </linearGradient>
    </defs>
    <g id="form-illustration" stroke="none" stroke-width="1" fill="none" fill-rule="evenodd">
        <g id="Group-2">
            <path d="M121.725321,118.194601 C124.063625,121.735408 125.727203,125.760993 126.532898,130.088198 L135.964236,130.088198 C138.177217,130.088198 139.971192,131.882174 139.971192,134.095155 L139.971192,138.047012 C139.971192,140.259993 138.177217,142.053968 135.964236,142.053968 L126.532898,142.053968 C125.655399,146.766817 123.760294,151.121887 121.084202,154.882561 L127.638039,161.669258 C129.175305,163.261144 129.131027,165.797822 127.539142,167.335087 L124.696414,170.080278 C123.104529,171.617544 120.56785,171.573266 119.030585,169.981381 L112.477463,163.195425 C108.936655,165.533728 104.911071,167.197306 100.583865,168.003001 L100.583865,177.434339 C100.583865,179.64732 98.7898898,181.441296 96.5769088,181.441296 L92.6250516,181.441296 C90.4120706,181.441296 88.6180951,179.64732 88.6180951,177.434339 L88.6180951,168.003001 C83.905247,167.125502 79.5501765,165.230397 75.7895028,162.554305 L69.0028054,169.108143 C67.4109201,170.645408 64.8742419,170.60113 63.3369762,169.009245 L60.5917855,166.166517 C59.0545197,164.574632 59.0987976,162.037954 60.6906829,160.500688 L67.476639,153.947566 C65.1383353,150.406759 63.4747577,146.381174 62.6690627,142.053968 L53.2377245,142.053968 C51.0247435,142.053968 49.230768,140.259993 49.230768,138.047012 L49.230768,134.095155 C49.230768,131.882174 51.0247435,130.088198 53.2377245,130.088198 L62.6690627,130.088198 C63.5465617,125.37535 65.4416667,121.02028 68.1177585,117.259606 L61.563921,110.472909 C60.0266553,108.881023 60.0709331,106.344345 61.6628184,104.807079 L64.5055466,102.061889 C66.0974319,100.524623 68.6341101,100.568901 70.1713758,102.160786 L76.7244975,108.946742 C80.2653049,106.608438 84.2908896,104.944861 88.6180951,104.139166 L88.6180951,94.7078277 C88.6180951,92.4948467 90.4120706,90.7008712 92.6250516,90.7008712 L96.5769088,90.7008712 C98.7898898,90.7008712 100.583865,92.4948467 100.583865,94.7078277 L100.583865,104.139166 C105.296713,105.016665 109.651784,106.91177 113.412458,109.587862 L120.199155,103.034024 C121.79104,101.496758 124.327718,101.541036 125.864984,103.132922 L128.610175,105.97565 C130.147441,107.567535 130.103163,110.104213 128.511278,111.641479 L121.725321,118.194601 Z M94.6009802,148.274537 C101.340762,148.274537 106.804434,142.810865 106.804434,136.071083 C106.804434,129.331302 101.340762,123.867629 94.6009802,123.867629 C87.8611987,123.867629 82.3975263,129.331302 82.3975263,136.071083 C82.3975263,142.810865 87.8611987,148.274537 94.6009802,148.274537 Z" id="Combined-Shape" fill="url(#linearGradient-1)" transform="translate(94.600980, 136.071083) rotate(2.000000) translate(-94.600980, -136.071083) "></path>
            <path d="M67.8302633,63.8698302 C69.7095201,66.7155197 71.0465104,69.9508169 71.6940345,73.4285218 L78.4872176,73.4285218 C80.7001986,73.4285218 82.4941742,75.2224974 82.4941742,77.4354783 L82.4941742,79.0382609 C82.4941742,81.2512419 80.7001986,83.0452175 78.4872176,83.0452175 L71.6940345,83.0452175 C70.9888028,86.8328571 69.4657376,90.3329567 67.3150059,93.3553492 L72.0357795,98.2438533 C73.5730452,99.8357386 73.5287674,102.372417 71.9368821,103.909683 L70.7839367,105.023069 C69.1920514,106.560335 66.6553733,106.516057 65.1181075,104.924171 L60.3979093,100.036263 C57.5522197,101.91552 54.3169225,103.25251 50.8392176,103.900034 L50.8392176,110.693217 C50.8392176,112.906198 49.0452421,114.700174 46.8322611,114.700174 L45.2294785,114.700174 C43.0164975,114.700174 41.222522,112.906198 41.222522,110.693217 L41.222522,103.900034 C37.4348824,103.194803 33.9347828,101.671737 30.9123902,99.5210057 L26.0238861,104.241779 C24.4320008,105.779045 21.8953227,105.734767 20.3580569,104.142882 L19.2446706,102.989937 C17.7074048,101.398051 17.7516827,98.8613731 19.343568,97.3241074 L24.2314764,92.6039091 C22.3522196,89.7582195 21.0152292,86.5229224 20.3677051,83.0452175 L13.574522,83.0452175 C11.361541,83.0452175 9.56756547,81.2512419 9.56756547,79.0382609 L9.56756547,77.4354783 C9.56756547,75.2224974 11.361541,73.4285218 13.574522,73.4285218 L20.3677051,73.4285218 C21.0729368,69.6408822 22.5960021,66.1407826 24.7467337,63.1183901 L20.0259602,58.2298859 C18.4886944,56.6380006 18.5329723,54.1013225 20.1248576,52.5640568 L21.2778029,51.4506704 C22.8696882,49.9134046 25.4063663,49.9576825 26.9436321,51.5495678 L31.6638303,56.4374762 C34.5095199,54.5582194 37.7448171,53.221229 41.222522,52.573705 L41.222522,45.7805218 C41.222522,43.5675408 43.0164975,41.7735653 45.2294785,41.7735653 L46.8322611,41.7735653 C49.0452421,41.7735653 50.8392176,43.5675408 50.8392176,45.7805218 L50.8392176,52.573705 C54.6268573,53.2789367 58.1269568,54.8020019 61.1493494,56.9527335 L66.0378535,52.23196 C67.6297388,50.6946942 70.1664169,50.7389721 71.7036827,52.3308574 L72.8170691,53.4838027 C74.3543348,55.075688 74.3100569,57.6123662 72.7181716,59.1496319 L67.8302633,63.8698302 Z M46.0308698,88.0445878 C51.447523,88.0445878 55.838588,83.6535228 55.838588,78.2368696 C55.838588,72.8202165 51.447523,68.4291515 46.0308698,68.4291515 C40.6142166,68.4291515 36.2231517,72.8202165 36.2231517,78.2368696 C36.2231517,83.6535228 40.6142166,88.0445878 46.0308698,88.0445878 Z" id="Combined-Shape" fill="url(#linearGradient-1)" transform="translate(46.030870, 78.236870) rotate(-17.000000) translate(-46.030870, -78.236870) "></path>
            <path d="M97.270131,22.9563031 C98.6544534,25.0525317 99.6393245,27.4357581 100.116312,29.99755 L104.530063,29.99755 C106.486249,29.99755 108.07205,31.5833517 108.07205,33.5395372 C108.07205,35.4957228 106.486249,37.0815245 104.530063,37.0815245 L100.116312,37.0815245 C99.5968152,39.8716245 98.4748752,42.4499131 96.8905755,44.6763069 L99.9579741,47.8526912 C101.316855,49.2598533 101.277715,51.502174 99.8705528,52.8610547 C98.4633907,54.2199354 96.22107,54.1807955 94.8621893,52.7736334 L91.7952144,49.5976879 C89.6989858,50.9820104 87.3157594,51.9668815 84.7539676,52.443869 L84.7539676,56.8576201 C84.7539676,58.8138056 83.1681658,60.3996073 81.2119803,60.3996073 C79.2557947,60.3996073 77.669993,58.8138056 77.669993,56.8576201 L77.669993,52.443869 C74.879893,51.9243721 72.3016045,50.8024321 70.0752106,49.2181324 L66.8988264,52.2855311 C65.4916642,53.6444117 63.2493435,53.6052719 61.8904628,52.1981098 C60.5315822,50.7909476 60.570722,48.5486269 61.9778841,47.1897463 L65.1538296,44.1227714 C63.7695072,42.0265428 62.7846361,39.6433164 62.3076485,37.0815245 L57.8938975,37.0815245 C55.9377119,37.0815245 54.3519102,35.4957228 54.3519102,33.5395372 C54.3519102,31.5833517 55.9377119,29.99755 57.8938975,29.99755 L62.3076485,29.99755 C62.8271454,27.20745 63.9490854,24.6291614 65.5333851,22.4027676 L62.4659865,19.2263833 C61.1071058,17.8192212 61.1462457,15.5769005 62.5534078,14.2180198 C63.9605699,12.8591391 66.2028906,12.898279 67.5617713,14.3054411 L70.6287461,17.4813865 C72.7249748,16.0970641 75.1082011,15.112193 77.669993,14.6352055 L77.669993,10.2214544 C77.669993,8.26526888 79.2557947,6.67946716 81.2119803,6.67946716 C83.1681658,6.67946716 84.7539676,8.26526888 84.7539676,10.2214544 L84.7539676,14.6352055 C87.5440676,15.1547024 90.1223561,16.2766423 92.3487499,17.8609421 L95.5251342,14.7935434 C96.9322964,13.4346628 99.1746171,13.4738026 100.533498,14.8809647 C101.892378,16.2881269 101.853239,18.5304476 100.446076,19.8893282 L97.270131,22.9563031 Z M81.2119803,40.7642252 C85.2020653,40.7642252 88.4366683,37.5296222 88.4366683,33.5395372 C88.4366683,29.5494522 85.2020653,26.3148493 81.2119803,26.3148493 C77.2218953,26.3148493 73.9872923,29.5494522 73.9872923,33.5395372 C73.9872923,37.5296222 77.2218953,40.7642252 81.2119803,40.7642252 Z" id="Combined-Shape" fill="url(#linearGradient-1)" transform="translate(81.211980, 33.539537) rotate(-17.000000) translate(-81.211980, -33.539537) "></path>
            <g id="doc-weebsite-big" transform="translate(148.705490, 74.861682)">
                <g id="Rectangle-7">
                    <use fill="black" fill-opacity="1" filter="url(#filter-3)" xlink:href="#path-2"></use>
                    <use fill="#FFFFFF" fill-rule="evenodd" xlink:href="#path-2"></use>
                </g>
                <g id="Group-45" transform="translate(0.200000, 20.200000)">
                    <mask id="mask-5" fill="white">
                        <use xlink:href="#path-4"></use>
                    </mask>
                    <use id="Combined-Shape" fill="#000000" xlink:href="#path-4"></use>
                    <polygon id="Rectangle-18" fill="#FFFFFF" opacity="0.0853794643" mask="url(#mask-5)" transform="translate(30.941902, 66.637768) rotate(30.000000) translate(-30.941902, -66.637768) " points="27.9668005 -12.8169513 34.3630168 -12.8169513 35.7860652 -12.8169513 33.7496929 146.092488 26.097738 133.036371 27.9143102 -8.72084296"></polygon>
                    <polygon id="Rectangle-18" fill="#FFFFFF" opacity="0.0853794643" mask="url(#mask-5)" transform="translate(14.789237, 46.733894) rotate(30.000000) translate(-14.789237, -46.733894) " points="25.5497418 -13.3546658 25.5497418 106.822453 4.02873244 70.8569674 4.02873244 -0.804597686"></polygon>
                </g>
                <g id="Group-69" transform="translate(0.043478, 0.000000)">
                    <g id="Rectangle-7">
                        <use fill="black" fill-opacity="1" filter="url(#filter-7)" xlink:href="#path-6"></use>
                        <use fill="#FFFFFF" fill-rule="evenodd" xlink:href="#path-6"></use>
                    </g>
                    <circle id="Oval-2" fill="#FA3945" opacity="0.568694196" cx="11.8648727" cy="10.5405646" r="3.23991884"></circle>
                    <circle id="Oval-2" fill="#F6BC02" opacity="0.568694196" cx="22.0474748" cy="10.5405646" r="3.23991884"></circle>
                    <circle id="Oval-2" fill="#E7D74F" opacity="0.568694196" cx="32.2300769" cy="10.5405646" r="3.23991884"></circle>
                    <polygon id="Rectangle-12" fill="#E9EBEB" points="51.3325593 6.7704352 222.21601 6.7704352 222.21601 14.3106939 51.3325593 14.3106939"></polygon>
                </g>
                <g id="Group-70" transform="translate(76.426087, 60.104348)">
                    <path d="M4.62646322,0.737782102 L50.1062102,0.737782102 C52.171187,0.737782102 53.8451815,2.41177656 53.8451815,4.47675337 L53.8451815,5.82509242 C53.8451815,7.89006923 52.171187,9.56406369 50.1062102,9.56406369 L4.62646322,9.56406369 C2.56148641,9.56406369 0.887491954,7.89006923 0.887491954,5.82509242 L0.887491954,4.47675337 C0.887491954,2.41177656 2.56148641,0.737782102 4.62646322,0.737782102 Z" id="Rectangle-8" fill="#E9EBEB" opacity="0.878236607"></path>
                    <rect id="Rectangle-4" fill="#E9EBEB" opacity="0.762723214" x="0.887491954" y="42.7717974" width="147.840217" height="37.5116968" rx="3.73897127"></rect>
                    <path d="M14.3230216,54.4727229 L110.330241,54.4727229" id="Path-22" stroke-opacity="0.392153533" stroke="#BEC2C3" stroke-width="1.5026087"></path>
                    <path d="M14.3230216,63.3705237 L49.162194,63.3705237" id="Path-22" stroke-opacity="0.392153533" stroke="#BEC2C3" stroke-width="1.5026087"></path>
                    <path d="M14.3230216,71.1650394 L63.4347383,71.1650394" id="Path-22" stroke-opacity="0.392153533" stroke="#BEC2C3" stroke-width="1.5026087"></path>
                    <path d="M2.89392251,91.0339237 L137.193508,91.0339237" id="Path-23" stroke-opacity="0.392153533" stroke="#BEC2C3" stroke-width="1.5026087"></path>
                    <path d="M2.89392251,19.1190143 L137.193508,19.1190143" id="Path-23" stroke-opacity="0.392153533" stroke="#BEC2C3" stroke-width="1.5026087"></path>
                    <path d="M2.89392251,30.8831699 L99.8037957,30.8831699" id="Path-23" stroke-opacity="0.392153533" stroke="#BEC2C3" stroke-width="1.5026087"></path>
                    <path d="M2.89392251,103.497161 L112.267033,103.497161" id="Path-23" stroke-opacity="0.392153533" stroke="#BEC2C3" stroke-width="1.5026087"></path>
                </g>
                <g id="Group-40" transform="translate(14.815979, 60.104348)" stroke-linecap="round" stroke-width="3.75652174">
                    <path d="M0.128374672,2.91214955 L32.0192173,2.91214955" id="secondary-color" stroke="#E7D74F"></path>
                    <path d="M0.128374672,17.1287814 L32.0192173,17.1287814" id="primary-color" stroke="#E7D74F" opacity="0.424553571"></path>
                    <path d="M0.128374672,31.3454132 L32.0192173,31.3454132" id="Path-18" stroke="#FFFFFF"></path>
                    <path d="M0.128374672,45.5620451 L32.0192173,45.5620451" id="secondary-color" stroke="#E7D74F"></path>
                    <path d="M0.128374672,59.7786769 L32.0192173,59.7786769" id="Path-18" stroke="#FFFFFF"></path>
                    <path d="M0.128374672,73.9953087 L32.0192173,73.9953087" id="primary-color" stroke="#E7D74F" opacity="0.424553571"></path>
                </g>
            </g>
            <g id="upvote" transform="translate(411.362205, 152.040783)">
                <g id="Group-51" transform="translate(0.162986, 0.402720)">
                    <g id="Polygon">
                        <use fill="black" fill-opacity="1" filter="url(#filter-10)" xlink:href="#path-9"></use>
                        <use fill="url(#linearGradient-8)" fill-rule="evenodd" xlink:href="#path-9"></use>
                    </g>
                    <polygon id="Polygon" fill="#FCFCFC" points="13.7708575 85.8193841 25.1572089 105.541123 2.38450612 105.541123"></polygon>
                    <g id="Polygon">
                        <use fill="black" fill-opacity="1" filter="url(#filter-12)" xlink:href="#path-11"></use>
                        <use fill="url(#linearGradient-8)" fill-rule="evenodd" xlink:href="#path-11"></use>
                    </g>
                    <g id="Polygon">
                        <use fill="black" fill-opacity="1" filter="url(#filter-14)" xlink:href="#path-13"></use>
                        <use fill="url(#linearGradient-8)" fill-rule="evenodd" xlink:href="#path-13"></use>
                    </g>
                    <g id="Polygon">
                        <use fill="black" fill-opacity="1" filter="url(#filter-16)" xlink:href="#path-15"></use>
                        <use fill="url(#linearGradient-8)" fill-rule="evenodd" xlink:href="#path-15"></use>
                    </g>
                    <g id="Polygon">
                        <use fill="black" fill-opacity="1" filter="url(#filter-18)" xlink:href="#path-17"></use>
                        <use fill="url(#linearGradient-8)" fill-rule="evenodd" xlink:href="#path-17"></use>
                    </g>
                </g>
                <g id="Group-52" transform="translate(0.162986, 100.173913)">
                    <mask id="mask-21" fill="white">
                        <use xlink:href="#path-20"></use>
                    </mask>
                    <use id="Path-19" fill="url(#linearGradient-19)" xlink:href="#path-20"></use>
                    <path d="M10.3413581,56.885634 L10.105874,31.2139878" id="Path-20" stroke="#FB6E77" stroke-width="0.999986087" mask="url(#mask-21)"></path>
                    <path d="M22.5258861,41.6303603 L21.058845,21.0037082" id="Path-21" stroke="#FB6E77" stroke-width="0.999986087" mask="url(#mask-21)"></path>
                    <path d="M32.1479798,40.9365497 L30.439849,27.4866825" id="Path-24" stroke="#FB6E77" stroke-width="0.999986087" mask="url(#mask-21)"></path>
                    <path d="M39.4450588,40.9342675 C39.5239821,38.6378861 39.5634437,36.9464234 39.5634437,35.8598794 C39.5634437,34.7733354 39.5239821,34.1450378 39.4450588,33.9749866" id="Path-25" stroke="#FB6E77" stroke-width="0.999986087" mask="url(#mask-21)"></path>
                </g>
            </g>
            <polygon id="Path-62" fill="#000000" points="210.485375 54.1417621 210.485375 58.698628 529.541756 56.3902798 497.005425 37.2429797"></polygon>
            <g id="Group" transform="translate(480.481401, 58.318850)">
                <path d="M48.6455442,115.44934 L53.4743911,154.333904 L13.3214607,115.44934 L48.6455442,115.44934 Z M48.3345439,112.944993 L12.029786,112.944993 L15.5363009,80.8195434 L48.2832674,112.532086 L48.3345439,112.944993 Z M37.2940322,24.0406448 L41.417221,57.2428566 L20.3378599,36.8293586 L21.7337568,24.0406448 L37.2940322,24.0406448 Z M35.6310041,21.536297 L22.0071081,21.536297 L23.3095231,9.60403178 L35.6310041,21.536297 Z M42.4255377,65.362384 L47.5450993,106.587945 L16.0525162,76.090162 L17.2234605,65.362384 L42.4255377,65.362384 Z M41.8156977,62.8580361 L17.4968118,62.8580361 L19.8216447,41.55874 L41.8156977,62.8580361 Z M49.2445575,155.466974 L7.38848242,155.466974 L11.3898326,118.80802 L49.2445575,155.466974 Z M36.4296877,17.0804613 L23.8257383,4.87465045 L24.2508488,0.979938846 L34.4302579,0.979938846 L36.4296877,17.0804613 Z" id="Combined-Shape" fill="url(#linearGradient-22)"></path>
                <polygon id="Rectangle-21" fill="#1C2A30" opacity="0.313448661" points="7.14140129 159.483004 56.0054357 159.483004 62.2846446 165.946329 0.951715856 165.946329"></polygon>
            </g>
            <g id="Path-7">
                <use fill="black" fill-opacity="1" filter="url(#filter-24)" xlink:href="#path-23"></use>
                <use fill="#000000" fill-rule="evenodd" xlink:href="#path-23"></use>
            </g>
            <path d="M272.169373,71.3427404 L272.169373,78.7442922 C278.510891,79.7657126 281.68165,82.9364717 281.68165,88.2565693 C281.68165,93.5766668 278.510891,96.6963177 272.169373,97.6155219" id="Path-8" stroke="#000000" stroke-width="2.50434783" stroke-linecap="round"></path>
            <path d="M607.939722,262.357379 C610.08464,265.60535 611.610635,269.298006 612.349696,273.267337 L620.669642,273.267337 C622.882623,273.267337 624.676599,275.061312 624.676599,277.274293 L624.676599,280.236542 C624.676599,282.449523 622.882623,284.243498 620.669642,284.243498 L612.349696,284.243498 C611.544769,288.566578 609.806396,292.56147 607.351625,296.011123 L613.133237,301.998157 C614.670503,303.590042 614.626225,306.12672 613.034339,307.663986 L610.903476,309.721737 C609.311591,311.259002 606.774913,311.214724 605.237647,309.622839 L599.456692,303.636485 C596.208722,305.781403 592.516066,307.307398 588.546735,308.046459 L588.546735,316.366405 C588.546735,318.579386 586.752759,320.373362 584.539778,320.373362 L581.57753,320.373362 C579.364549,320.373362 577.570574,318.579386 577.570574,316.366405 L577.570574,308.046459 C573.247494,307.241532 569.252602,305.503159 565.802949,303.048388 L559.815915,308.83 C558.22403,310.367266 555.687351,310.322988 554.150086,308.731102 L552.092335,306.600239 C550.555069,305.008354 550.599347,302.471676 552.191233,300.93441 L558.177587,295.153456 C556.032668,291.905485 554.506674,288.212829 553.767613,284.243498 L545.447666,284.243498 C543.234685,284.243498 541.44071,282.449523 541.44071,280.236542 L541.44071,277.274293 C541.44071,275.061312 543.234685,273.267337 545.447666,273.267337 L553.767613,273.267337 C554.57254,268.944257 556.310913,264.949365 558.765683,261.499712 L552.984072,255.512678 C551.446806,253.920793 551.491084,251.384115 553.082969,249.846849 L555.213832,247.789098 C556.805718,246.251833 559.342396,246.29611 560.879661,247.887996 L566.660616,253.87435 C569.908587,251.729431 573.601243,250.203437 577.570574,249.464376 L577.570574,241.144429 C577.570574,238.931448 579.364549,237.137473 581.57753,237.137473 L584.539778,237.137473 C586.752759,237.137473 588.546735,238.931448 588.546735,241.144429 L588.546735,249.464376 C592.869815,250.269303 596.864706,252.007676 600.31436,254.462446 L606.301394,248.680835 C607.893279,247.143569 610.429957,247.187847 611.967223,248.779732 L614.024973,250.910595 C615.562239,252.502481 615.517961,255.039159 613.926076,256.576425 L607.939722,262.357379 Z M583.058654,289.949605 C589.241033,289.949605 594.252842,284.937797 594.252842,278.755417 C594.252842,272.573038 589.241033,267.56123 583.058654,267.56123 C576.876275,267.56123 571.864467,272.573038 571.864467,278.755417 C571.864467,284.937797 576.876275,289.949605 583.058654,289.949605 Z" id="Combined-Shape" fill="url(#linearGradient-25)" transform="translate(583.058654, 278.755417) rotate(2.000000) translate(-583.058654, -278.755417) "></path>
            <path d="M645.766855,317.519123 C647.402561,319.996013 648.566278,322.812017 649.129883,325.839013 L654.523374,325.839013 C656.736355,325.839013 658.530331,327.632989 658.530331,329.84597 L658.530331,330.202434 C658.530331,332.415415 656.736355,334.20939 654.523374,334.20939 L649.129883,334.20939 C648.516049,337.506154 647.190373,340.552643 645.318375,343.183335 L649.066603,347.064739 C650.603869,348.656624 650.559591,351.193302 648.967705,352.730568 L648.711287,352.978188 C647.119401,354.515454 644.582723,354.471176 643.045457,352.879291 L639.29773,348.998406 C636.82084,350.634112 634.004836,351.797829 630.97784,352.361434 L630.97784,357.754925 C630.97784,359.967906 629.183864,361.761882 626.970883,361.761882 L626.614419,361.761882 C624.401438,361.761882 622.607463,359.967906 622.607463,357.754925 L622.607463,352.361434 C619.310699,351.7476 616.264211,350.421923 613.633518,348.549925 L609.752115,352.298154 C608.160229,353.835419 605.623551,353.791141 604.086285,352.199256 L603.838665,351.942837 C602.301399,350.350952 602.345677,347.814274 603.937562,346.277008 L607.818447,342.529281 C606.182741,340.052391 605.019024,337.236387 604.455419,334.20939 L599.061928,334.20939 C596.848947,334.20939 595.054971,332.415415 595.054971,330.202434 L595.054971,329.84597 C595.054971,327.632989 596.848947,325.839013 599.061928,325.839013 L604.455419,325.839013 C605.069253,322.54225 606.39493,319.495761 608.266928,316.865069 L604.518699,312.983665 C602.981434,311.39178 603.025712,308.855102 604.617597,307.317836 L604.874016,307.070215 C606.465901,305.53295 609.002579,305.577228 610.539845,307.169113 L614.287572,311.049998 C616.764462,309.414292 619.580466,308.250575 622.607463,307.68697 L622.607463,302.293479 C622.607463,300.080498 624.401438,298.286522 626.614419,298.286522 L626.970883,298.286522 C629.183864,298.286522 630.97784,300.080498 630.97784,302.293479 L630.97784,307.68697 C634.274603,308.300804 637.321092,309.62648 639.951784,311.498478 L643.833188,307.75025 C645.425073,306.212985 647.961751,306.257262 649.499017,307.849148 L649.746638,308.105566 C651.283903,309.697452 651.239626,312.23413 649.64774,313.771396 L645.766855,317.519123 Z M626.792651,338.560845 C631.507309,338.560845 635.329294,334.73886 635.329294,330.024202 C635.329294,325.309544 631.507309,321.487559 626.792651,321.487559 C622.077993,321.487559 618.256008,325.309544 618.256008,330.024202 C618.256008,334.73886 622.077993,338.560845 626.792651,338.560845 Z" id="Combined-Shape" fill="url(#linearGradient-25)" transform="translate(626.792651, 330.024202) rotate(-17.000000) translate(-626.792651, -330.024202) "></path>
        </g>
    </g>
</svg>