<?xml version="1.0" encoding="UTF-8"?>
<svg width="170px" height="130px" viewBox="0 0 170 130" version="1.1" xmlns="http://www.w3.org/2000/svg" xmlns:xlink="http://www.w3.org/1999/xlink">
    <!-- Generator: Sketch 52.3 (67297) - http://www.bohemiancoding.com/sketch -->
    <title>feature-opensource</title>
    <desc>Created with Sketch.</desc>
    <defs>
        <linearGradient x1="100%" y1="0%" x2="100%" y2="100%" id="linearGradient-1">
            <stop stop-color="#FFFFFF" stop-opacity="0.211192255" offset="0%"></stop>
            <stop stop-color="#FFFFFF" stop-opacity="0.0519134964" offset="100%"></stop>
        </linearGradient>
    </defs>
    <g id="feature-opensource" stroke="none" stroke-width="1" fill="none" fill-rule="evenodd">
        <g id="Group-12" transform="translate(4.160526, 13.000000)">
            <g id="Group-2">
                <circle id="Oval-9" fill="#E7D74F" transform="translate(85.789343, 28.579251) rotate(60.000000) translate(-85.789343, -28.579251) " cx="85.7893428" cy="28.5792507" r="7.07547306"></circle>
                <circle id="Oval-9" fill="#E7D74F" transform="translate(10.085067, 72.553595) rotate(60.000000) translate(-10.085067, -72.553595) " cx="10.0850668" cy="72.5535954" r="7.07547306"></circle>
                <circle id="Oval-9" fill="#091E26" transform="translate(85.650408, 74.352994) rotate(121.000000) translate(-85.650408, -74.352994) " cx="85.6504084" cy="74.3529944" r="7.0736746"></circle>
                <circle id="Oval-9" fill="#091E26" transform="translate(10.687488, 29.116504) rotate(121.000000) translate(-10.687488, -29.116504) " cx="10.6874875" cy="29.1165041" r="7.07547306"></circle>
                <circle id="Oval-9" fill="#038379" cx="47.8326147" cy="7.07547306" r="7.07547306"></circle>
                <circle id="Oval-9" fill="#038379" cx="47.8326147" cy="96.018607" r="7.07547306"></circle>
                <circle id="Oval-9" fill="url(#linearGradient-1)" cx="47.8326147" cy="7.07547306" r="7.07547306"></circle>
                <circle id="Oval-9" fill="url(#linearGradient-1)" cx="47.8326147" cy="96.018607" r="7.07547306"></circle>
            </g>
            <polygon id="Polygon-3" stroke="#E7D74F" stroke-width="3.6" opacity="0.5296875" points="47.8308163 24.4040363 71.7457081 38.2113056 71.7457081 65.8258441 47.8308163 79.6331134 23.9159244 65.8258441 23.9159244 38.2113056"></polygon>
            <polygon id="Polygon-3-Copy" stroke="#E7D74F" stroke-width="3.6" opacity="0.5296875" points="47.8308163 24.4040363 71.7457081 38.2113056 71.7457081 65.8258441 47.8308163 79.6331134 23.9159244 65.8258441 23.9159244 38.2113056"></polygon>
            <polygon id="Polygon-3" stroke="#038379" stroke-width="3.6" points="47.8308163 35.8876593 61.8005989 43.9531171 61.8005989 60.0840326 47.8308163 68.1494904 33.8610336 60.0840326 33.8610336 43.9531171"></polygon>
            <path d="M20.6119755,28.9699732 L42.8362879,15.8018204" id="Path-3" stroke="#000000" stroke-width="2.7" stroke-linecap="round"></path>
            <path d="M52.8437895,16.0234208 L76.5309324,29.5497495" id="Path-4" stroke="#000000" stroke-width="2.7" stroke-linecap="round"></path>
            <path d="M81.706072,36.8136907 L81.706072,65.3593056" id="Path-12" stroke="#000000" stroke-width="2.7" stroke-linecap="round"></path>
            <path d="M13.8796075,38.4807149 L13.8796075,63.1868181" id="Path-13" stroke="#000000" stroke-width="2.7" stroke-linecap="round"></path>
            <path d="M19.6253592,74.7526784 L42.7320564,88.3272102" id="Path-15" stroke="#000000" stroke-width="2.7" stroke-linecap="round"></path>
            <path d="M52.6389262,88.7150521 L75.3655201,75.5581066" id="Path-17" stroke="#000000" stroke-width="2.7" stroke-linecap="round"></path>
        </g>
    </g>
</svg>