<?xml version="1.0" encoding="UTF-8"?>
<svg width="515px" height="346px" viewBox="0 0 515 346" version="1.1" xmlns="http://www.w3.org/2000/svg" xmlns:xlink="http://www.w3.org/1999/xlink">
    <!-- Generator: Sketch 52.3 (67297) - http://www.bohemiancoding.com/sketch -->
    <title>hero-illustration</title>
    <desc>Created with Sketch.</desc>
    <defs>
        <linearGradient x1="97.1331809%" y1="50%" x2="0%" y2="50%" id="linearGradient-1">
            <stop stop-color="#D5DAF9" stop-opacity="0.234205163" offset="0%"></stop>
            <stop stop-color="#CBDADF" stop-opacity="0.209918478" offset="100%"></stop>
        </linearGradient>
        <polygon id="path-2" points="48.5958403 6.30674992 200.532616 6.30674992 200.532616 13.5560233 48.5958403 13.5560233"></polygon>
        <filter x="-1.3%" y="-27.6%" width="102.6%" height="155.2%" filterUnits="objectBoundingBox" id="filter-3">
            <feGaussianBlur stdDeviation="1.5" in="SourceAlpha" result="shadowBlurInner1"></feGaussianBlur>
            <feOffset dx="0" dy="1" in="shadowBlurInner1" result="shadowOffsetInner1"></feOffset>
            <feComposite in="shadowOffsetInner1" in2="SourceAlpha" operator="arithmetic" k2="-1" k3="1" result="shadowInnerInner1"></feComposite>
            <feColorMatrix values="0 0 0 0 0   0 0 0 0 0   0 0 0 0 0  0 0 0 0.299479167 0" type="matrix" in="shadowInnerInner1"></feColorMatrix>
        </filter>
        <linearGradient x1="65.5271772%" y1="8.9337659%" x2="43.356762%" y2="100%" id="linearGradient-4">
            <stop stop-color="#FFFFFF" stop-opacity="0" offset="0%"></stop>
            <stop stop-color="#091E26" stop-opacity="0.434358016" offset="100%"></stop>
        </linearGradient>
    </defs>
    <g id="hero-illustration" stroke="none" stroke-width="1" fill="none" fill-rule="evenodd">
        <g id="Group" transform="translate(8.000000, 0.000000)">
            <polygon id="Path-9" fill="#171C1E" opacity="0.0869605655" style="mix-blend-mode: multiply;" points="472.832891 116 431.153806 111.541329 456.235003 59.9541886 506.241432 59.9541886 460.822424 100.701988 503.718113 100.701988 461.712513 172.045811"></polygon>
            <path d="M45.9508457,140.283046 L2.59782062,135.645304 C1.49951768,135.527811 0.704413557,134.542215 0.821905849,133.443912 C0.846500829,133.214001 0.910777721,132.990096 1.01187994,132.782149 L27.5590522,78.1797825 L82.970195,78.1797825 L32.6422836,123.331619 L76.3737259,123.331619 C77.4782954,123.331619 78.3737259,124.22705 78.3737259,125.331619 C78.3737259,125.735965 78.2511663,126.130815 78.0222107,126.464093 L27.5590522,199.920733 L45.9508457,140.283046 Z" id="Path-9" fill="#171C1E" opacity="0.0869605655" style="mix-blend-mode: multiply;"></path>
            <polygon id="Path-9" fill="#171C1E" opacity="0.0869605655" style="mix-blend-mode: multiply;" transform="translate(108.461969, 31.053827) scale(-1, 1) translate(-108.461969, -31.053827) " points="110.715758 31.0538269 88 28.6237811 101.669647 0.507976993 128.923939 0.507976993 104.169864 22.7161694 127.54869 22.7161694 104.654977 61.5996767"></polygon>
            <path d="M116.041819,190.88631 L96.1568119,188.759087 C95.0585089,188.641595 94.2634048,187.655998 94.3808971,186.557695 C94.4054921,186.327784 94.469769,186.10388 94.5708712,185.895932 L106.995709,160.34046 L134.25,160.34046 L109.495925,182.548652 L129.376285,182.548652 C130.480855,182.548652 131.376285,183.444083 131.376285,184.548652 C131.376285,184.905511 131.280804,185.25587 131.099745,185.563386 L109.981038,221.43216 L116.041819,190.88631 Z" id="Path-9" fill="#171C1E" opacity="0.0869605655" style="mix-blend-mode: multiply;" transform="translate(113.788031, 190.886310) scale(-1, 1) rotate(53.000000) translate(-113.788031, -190.886310) "></path>
            <g id="webpage" transform="translate(163.000000, 116.000000)">
                <path d="M0.275672544,25.3931683 L250.915719,25.3931683 L250.915719,227.889065 C250.915719,228.993635 250.020288,229.889065 248.915719,229.889065 L2.27567254,229.889065 C1.17110304,229.889065 0.275672544,228.993635 0.275672544,227.889065 L0.275672544,25.3931683 Z" id="Rectangle-7" fill="#171C1E" opacity="0.0554315476" style="mix-blend-mode: multiply;"></path>
                <path d="M0.275672544,25.3931683 L240.475432,25.3931683 L240.475432,227.889065 C240.475432,228.993635 239.580001,229.889065 238.475432,229.889065 L2.27567254,229.889065 C1.17110304,229.889065 0.275672544,228.993635 0.275672544,227.889065 L0.275672544,25.3931683 Z" id="Rectangle-7" fill="#171C1E" opacity="0.0880301339" style="mix-blend-mode: multiply;"></path>
                <path d="M0.275672544,25.3931683 L230.045513,25.3931683 L230.045513,227.889065 C230.045513,228.993635 229.150083,229.889065 228.045513,229.889065 L2.27567254,229.889065 C1.17110304,229.889065 0.275672544,228.993635 0.275672544,227.889065 L0.275672544,25.3931683 Z" id="Rectangle-7" fill="#000000"></path>
                <g id="search-bar">
                    <path d="M33.3756725,0.393168305 L238.945513,0.393168305 C245.628159,0.393168305 251.045513,5.81052283 251.045513,12.4931683 L251.045513,19.5887149 L21.2756725,19.5887149 L21.2756725,12.4931683 C21.2756725,5.81052283 26.6930271,0.393168305 33.3756725,0.393168305 Z" id="Rectangle-7" fill="#171C1E" opacity="0.0554315476" style="mix-blend-mode: multiply;"></path>
                    <path d="M20.3756725,0.393168305 L225.945513,0.393168305 C232.628159,0.393168305 238.045513,5.81052283 238.045513,12.4931683 L238.045513,19.5887149 L8.27567254,19.5887149 L8.27567254,12.4931683 C8.27567254,5.81052283 13.6930271,0.393168305 20.3756725,0.393168305 Z" id="Rectangle-7" fill="#171C1E" opacity="0.0880301339" style="mix-blend-mode: multiply;"></path>
                    <path d="M12.3756725,0.393168305 L217.945513,0.393168305 C224.628159,0.393168305 230.045513,5.81052283 230.045513,12.4931683 L230.045513,19.5887149 L0.275672544,19.5887149 L0.275672544,12.4931683 C0.275672544,5.81052283 5.69302707,0.393168305 12.3756725,0.393168305 Z" id="Rectangle-7" fill="#000000"></path>
                    <g id="Rectangle-12" transform="translate(124.564228, 9.931387) scale(-1, 1) translate(-124.564228, -9.931387) ">
                        <use fill="url(#linearGradient-1)" fill-rule="evenodd" xlink:href="#path-2"></use>
                        <use fill="black" fill-opacity="1" filter="url(#filter-3)" xlink:href="#path-2"></use>
                    </g>
                </g>
                <g id="secondary-color" transform="translate(7.000000, 6.000000)">
                    <circle id="Oval-2" fill="#E7D74F" cx="3.65124705" cy="4.0238505" r="3.11488748"></circle>
                    <circle id="Oval-2" fill="#F6BC02" cx="13.4408934" cy="4.0238505" r="3.11488748"></circle>
                    <circle id="Oval-2" fill="#038379" cx="23.2305398" cy="4.0238505" r="3.11488748"></circle>
                </g>
            </g>
            <g id="eye" transform="translate(206.240234, 202.863314)">
                <path d="M73.3381939,75.2035238 C92.0688494,75.2035238 115.425044,62.9038932 143.406779,38.3046318 C114.575507,13.2894845 91.2193124,0.781910797 73.3381939,0.781910797 C55.4570753,0.781910797 31.0930572,13.2894845 0.246139576,38.3046318 C30.2435203,62.9038932 54.6075384,75.2035238 73.3381939,75.2035238 Z" id="Oval-6" fill="#038379"></path>
                <path d="M73.3381939,75.2035238 C92.0688494,75.2035238 115.425044,62.9038932 143.406779,38.3046318 C114.575507,13.2894845 91.2193124,0.781910797 73.3381939,0.781910797 C55.4570753,0.781910797 31.0930572,13.2894845 0.246139576,38.3046318 C30.2435203,62.9038932 54.6075384,75.2035238 73.3381939,75.2035238 Z" id="Oval-6" fill="url(#linearGradient-4)"></path>
                <circle id="Oval-5" stroke="#F7F8F8" stroke-width="8" fill="#14232A" cx="73.560425" cy="37.9927173" r="24.0055167"></circle>
            </g>
            <g id="Group-24" transform="translate(262.000000, 225.000000)" stroke="#E7D74F" stroke-width="3.6">
                <path d="M6.44123443,4.65910344 L29.0481507,27.2660197" id="Path-39"></path>
                <path d="M6.44123443,4.65910344 L29.0481507,27.2660197" id="Path-39" transform="translate(17.744693, 15.962562) scale(-1, 1) translate(-17.744693, -15.962562) "></path>
                <path d="M0.728361902,16.6541979 L34.9264974,16.6541979" id="Path-40"></path>
                <path d="M17.8355645,0.80461917 L17.8355645,32.8697885" id="Path-41"></path>
            </g>
            <circle id="Oval-5" fill="#14232A" cx="279.800659" cy="240.856032" r="5.7708994"></circle>
        </g>
    </g>
</svg>