<?xml version="1.0" encoding="UTF-8"?>
<svg width="181px" height="306px" viewBox="0 0 181 306" version="1.1" xmlns="http://www.w3.org/2000/svg" xmlns:xlink="http://www.w3.org/1999/xlink">
    <!-- Generator: Sketch 52.3 (67297) - http://www.bohemiancoding.com/sketch -->
    <title>hero-texture</title>
    <desc>Created with Sketch.</desc>
    <g id="hero-texture" stroke="none" stroke-width="1" fill="none" fill-rule="evenodd">
        <g id="Group-6" transform="translate(-2.000000, -2.000000)" fill="#171C1E">
            <path d="M117.297086,189.084677 C119.766349,192.823792 121.523098,197.074835 122.373917,201.644391 L132.557883,201.644391 C134.770864,201.644391 136.564839,203.438366 136.564839,205.651347 L136.564839,210.273362 C136.564839,212.486343 134.770864,214.280318 132.557883,214.280318 L122.373917,214.280318 C121.447272,219.257115 119.44603,223.856097 116.62006,227.827392 L123.696844,235.155617 C125.23411,236.747502 125.189832,239.28418 123.597947,240.821446 L120.273148,244.032167 C118.681263,245.569433 116.144584,245.525155 114.607319,243.93327 L107.53129,236.605828 C103.792175,239.075091 99.5411327,240.831839 94.9715768,241.682658 L94.9715768,251.866625 C94.9715768,254.079606 93.1776013,255.873581 90.9646203,255.873581 L86.3426054,255.873581 C84.1296244,255.873581 82.3356489,254.079606 82.3356489,251.866625 L82.3356489,241.682658 C77.358852,240.756014 72.7598704,238.754771 68.7885755,235.928802 L61.4603505,243.005586 C59.8684652,244.542852 57.3317871,244.498574 55.7945213,242.906689 L52.5838,239.581889 C51.0465343,237.990004 51.0908121,235.453326 52.6826974,233.91606 L60.0101397,226.840032 C57.5408764,223.100917 55.7841281,218.849874 54.9333091,214.280318 L44.7493428,214.280318 C42.5363618,214.280318 40.7423862,212.486343 40.7423862,210.273362 L40.7423862,205.651347 C40.7423862,203.438366 42.5363618,201.644391 44.7493428,201.644391 L54.9333091,201.644391 C55.8599535,196.667594 57.8611962,192.068612 60.6871659,188.097317 L53.6103812,180.769092 C52.0731154,179.177207 52.1173933,176.640529 53.7092786,175.103263 L57.0340779,171.892542 C58.6259632,170.355276 61.1626413,170.399554 62.6999071,171.991439 L69.7759358,179.318881 C73.5150505,176.849618 77.766093,175.09287 82.3356489,174.242051 L82.3356489,164.058084 C82.3356489,161.845103 84.1296244,160.051128 86.3426054,160.051128 L90.9646203,160.051128 C93.1776013,160.051128 94.9715768,161.845103 94.9715768,164.058084 L94.9715768,174.242051 C99.9483737,175.168695 104.547355,177.169938 108.51865,179.995908 L115.846875,172.919123 C117.43876,171.381857 119.975439,171.426135 121.512704,173.01802 L124.723426,176.34282 C126.260691,177.934705 126.216414,180.471383 124.624528,182.008649 L117.297086,189.084677 Z M88.6536129,220.849278 C95.7708641,220.849278 101.540536,215.079606 101.540536,207.962355 C101.540536,200.845103 95.7708641,195.075431 88.6536129,195.075431 C81.5363616,195.075431 75.7666895,200.845103 75.7666895,207.962355 C75.7666895,215.079606 81.5363616,220.849278 88.6536129,220.849278 Z" id="Combined-Shape" opacity="0.0994698661" style="mix-blend-mode: multiply;" transform="translate(88.653613, 207.962355) rotate(2.000000) translate(-88.653613, -207.962355) "></path>
            <path d="M169.133023,257.560988 C171.016074,260.412422 172.355763,263.65425 173.004594,267.138976 L179.819579,267.138976 C182.03256,267.138976 183.826536,268.932951 183.826536,271.145932 L183.826536,272.768128 C183.826536,274.981109 182.03256,276.775084 179.819579,276.775084 L173.004594,276.775084 C172.297939,280.57037 170.771799,284.077535 168.616726,287.106029 L173.352648,292.01022 C174.889914,293.602105 174.845636,296.138783 173.253751,297.676049 L172.086841,298.802921 C170.494955,300.340186 167.958277,300.295908 166.421012,298.704023 L161.685666,293.800429 C158.834232,295.68348 155.592404,297.023169 152.107678,297.672 L152.107678,304.486985 C152.107678,306.699966 150.313703,308.493942 148.100722,308.493942 L146.478526,308.493942 C144.265545,308.493942 142.47157,306.699966 142.47157,304.486985 L142.47157,297.672 C138.676284,296.965345 135.169119,295.439205 132.140625,293.284132 L127.236434,298.020054 C125.644549,299.55732 123.107871,299.513042 121.570605,297.921156 L120.443733,296.754247 C118.906468,295.162361 118.950746,292.625683 120.542631,291.088417 L125.446225,286.353072 C123.563174,283.501638 122.223485,280.259809 121.574654,276.775084 L114.759669,276.775084 C112.546688,276.775084 110.752712,274.981109 110.752712,272.768128 L110.752712,271.145932 C110.752712,268.932951 112.546688,267.138976 114.759669,267.138976 L121.574654,267.138976 C122.281309,263.34369 123.807449,259.836525 125.962522,256.808031 L121.2266,251.90384 C119.689334,250.311955 119.733612,247.775277 121.325498,246.238011 L122.492407,245.111139 C124.084293,243.573874 126.620971,243.618151 128.158237,245.210037 L132.893582,250.113631 C135.745016,248.23058 138.986845,246.890891 142.47157,246.24206 L142.47157,239.427075 C142.47157,237.214094 144.265545,235.420118 146.478526,235.420118 L148.100722,235.420118 C150.313703,235.420118 152.107678,237.214094 152.107678,239.427075 L152.107678,246.24206 C155.902964,246.948715 159.410129,248.474855 162.438623,250.629928 L167.342814,245.894006 C168.934699,244.35674 171.471377,244.401018 173.008643,245.992903 L174.135515,247.159813 C175.67278,248.751699 175.628503,251.288377 174.036617,252.825642 L169.133023,257.560988 Z M147.289624,281.784547 C152.717212,281.784547 157.117141,277.384618 157.117141,271.95703 C157.117141,266.529442 152.717212,262.129513 147.289624,262.129513 C141.862037,262.129513 137.462107,266.529442 137.462107,271.95703 C137.462107,277.384618 141.862037,281.784547 147.289624,281.784547 Z" id="Combined-Shape" opacity="0.164178757" style="mix-blend-mode: multiply;" transform="translate(147.289624, 271.957030) rotate(-17.000000) translate(-147.289624, -271.957030) "></path>
            <path d="M90.9621064,36.3913437 C93.824794,40.7262064 95.8614426,45.6545617 96.8478214,50.9521787 L109.292808,50.9521787 C111.505789,50.9521787 113.299765,52.7461542 113.299765,54.9591352 L113.299765,61.5944152 C113.299765,63.8073962 111.505789,65.6013717 109.292808,65.6013717 L96.8478214,65.6013717 C95.773536,71.3711148 93.4534381,76.7028458 90.1772105,81.3068817 L98.8250154,90.2619458 C100.362281,91.8538311 100.318003,94.3905092 98.726118,95.927775 L93.953097,100.537028 C92.3612117,102.074294 89.8245336,102.030016 88.2872678,100.43813 L79.6403393,91.4839738 C75.3054766,94.3466614 70.3771213,96.38331 65.0795043,97.3696888 L65.0795043,109.814675 C65.0795043,112.027656 63.2855287,113.821632 61.0725478,113.821632 L54.4372678,113.821632 C52.2242868,113.821632 50.4303113,112.027656 50.4303113,109.814675 L50.4303113,97.3696888 C44.6605682,96.2954035 39.3288371,93.9753055 34.7248013,90.6990779 L25.7697372,99.3468828 C24.1778519,100.884149 21.6411737,100.839871 20.103908,99.2479854 L15.4946552,94.4749644 C13.9573894,92.8830791 14.0016673,90.346401 15.5935526,88.8091352 L24.5477092,80.1622067 C21.6850216,75.827344 19.648373,70.8989887 18.6619941,65.6013717 L6.2170075,65.6013717 C4.00402652,65.6013717 2.21005098,63.8073962 2.21005098,61.5944152 L2.21005098,54.9591352 C2.21005098,52.7461542 4.00402652,50.9521787 6.2170075,50.9521787 L18.6619941,50.9521787 C19.7362795,45.1824356 22.0563775,39.8507045 25.3326051,35.2466687 L16.6848002,26.2916046 C15.1475344,24.6997193 15.1918123,22.1630411 16.7836976,20.6257754 L21.5567186,16.0165226 C23.1486038,14.4792568 25.685282,14.5235347 27.2225477,16.11542 L35.8694762,25.0695766 C40.204339,22.206889 45.1326943,20.1702404 50.4303113,19.1838616 L50.4303113,6.73887491 C50.4303113,4.52589393 52.2242868,2.73191839 54.4372678,2.73191839 L61.0725478,2.73191839 C63.2855287,2.73191839 65.0795043,4.52589393 65.0795043,6.73887491 L65.0795043,19.1838616 C70.8492474,20.2581469 76.1809784,22.5782449 80.7850143,25.8544725 L89.7400784,17.2066676 C91.3319637,15.6694018 93.8686418,15.7136797 95.4059076,17.305565 L100.01516,22.078586 C101.552426,23.6704713 101.508148,26.2071494 99.9162629,27.7444152 L90.9621064,36.3913437 Z M57.7549078,73.2169544 C66.0061409,73.2169544 72.695087,66.5280083 72.695087,58.2767752 C72.695087,50.0255421 66.0061409,43.336596 57.7549078,43.336596 C49.5036747,43.336596 42.8147286,50.0255421 42.8147286,58.2767752 C42.8147286,66.5280083 49.5036747,73.2169544 57.7549078,73.2169544 Z" id="Combined-Shape" opacity="0.0554315476" style="mix-blend-mode: multiply;" transform="translate(57.754908, 58.276775) scale(-1, -1) rotate(2.000000) translate(-57.754908, -58.276775) "></path>
            <path d="M151.056993,115.777891 C153.240067,119.08364 154.793207,122.841985 155.545416,126.881926 L164.084646,126.881926 C166.297627,126.881926 168.091602,128.675902 168.091602,130.888883 L168.091602,134.046386 C168.091602,136.259367 166.297627,138.053343 164.084646,138.053343 L155.545416,138.053343 C154.72617,142.453326 152.956872,146.519283 150.458434,150.030303 L156.39241,156.175115 C157.929676,157.767 157.885398,160.303678 156.293513,161.840944 L154.022195,164.03433 C152.430309,165.571596 149.893631,165.527318 148.356366,163.935433 L142.423058,157.791313 C139.117309,159.974387 135.358965,161.527527 131.319023,162.279736 L131.319023,170.818966 C131.319023,173.031947 129.525047,174.825923 127.312066,174.825923 L124.154563,174.825923 C121.941582,174.825923 120.147606,173.031947 120.147606,170.818966 L120.147606,162.279736 C115.747623,161.46049 111.681666,159.691193 108.170646,157.192754 L102.025834,163.12673 C100.433949,164.663996 97.8972711,164.619718 96.3600053,163.027833 L94.166619,160.756515 C92.6293533,159.16463 92.6736312,156.627951 94.2655164,155.090686 L100.409636,149.157378 C98.2265621,145.851629 96.6734219,142.093285 95.9212133,138.053343 L87.3819832,138.053343 C85.1690022,138.053343 83.3750266,136.259367 83.3750266,134.046386 L83.3750266,130.888883 C83.3750266,128.675902 85.1690022,126.881926 87.3819832,126.881926 L95.9212133,126.881926 C96.7404591,122.481943 98.5097567,118.415986 101.008195,114.904967 L95.0742189,108.760155 C93.5369531,107.168269 93.581231,104.631591 95.1731163,103.094325 L97.4444343,100.900939 C99.0363195,99.3636735 101.572998,99.4079513 103.110263,100.999837 L109.043571,107.143957 C112.34932,104.960882 116.107664,103.407742 120.147606,102.655534 L120.147606,94.1163034 C120.147606,91.9033224 121.941582,90.1093468 124.154563,90.1093468 L127.312066,90.1093468 C129.525047,90.1093468 131.319023,91.9033224 131.319023,94.1163034 L131.319023,102.655534 C135.719006,103.474779 139.784963,105.244077 143.295983,107.742515 L149.440794,101.808539 C151.03268,100.271273 153.569358,100.315551 155.106624,101.907436 L157.30001,104.178754 C158.837276,105.77064 158.792998,108.307318 157.201113,109.844584 L151.056993,115.777891 Z M125.733314,143.860956 C132.025672,143.860956 137.126636,138.759992 137.126636,132.467635 C137.126636,126.175277 132.025672,121.074313 125.733314,121.074313 C119.440957,121.074313 114.339993,126.175277 114.339993,132.467635 C114.339993,138.759992 119.440957,143.860956 125.733314,143.860956 Z" id="Combined-Shape" opacity="0.0554315476" style="mix-blend-mode: multiply;" transform="translate(125.733314, 132.467635) rotate(-17.000000) translate(-125.733314, -132.467635) "></path>
        </g>
    </g>
</svg>